grf
version=1
nRows=14
nColumns=37
inDegrees=no
endheader
time	ground_force_1_vx	ground_force_1_vy	ground_force_1_vz	ground_force_1_px	ground_force_1_py	ground_force_1_pz	ground_moment_1_mx	ground_moment_1_my	ground_moment_1_mz	ground_force_2_vx	ground_force_2_vy	ground_force_2_vz	ground_force_2_px	ground_force_2_py	ground_force_2_pz	ground_moment_2_mx	ground_moment_2_my	ground_moment_2_mz	ground_force_3_vx	ground_force_3_vy	ground_force_3_vz	ground_force_3_px	ground_force_3_py	ground_force_3_pz	ground_moment_3_mx	ground_moment_3_my	ground_moment_3_mz	ground_force_4_vx	ground_force_4_vy	ground_force_4_vz	ground_force_4_px	ground_force_4_py	ground_force_4_pz	ground_moment_4_mx	ground_moment_4_my	ground_moment_4_mz
      0.00000000	      0.00000000	     -0.00000000	      0.00000000	      0.00000000	      0.00000000	      0.00000000	      0.00000000	      0.00000000	      0.00000000	      8.15008831	     27.02929878	   -528.74645996	   -286.84600661	  -1042.32559297	      0.00000000	      0.00000000	      0.00000000	   1586.27707747	     -9.33801780	    -47.52172388	   -368.33657837	   -254.42489858	   -742.27467733	      0.00000000	      0.00000000	     -0.00000000	  -3751.18428628	      0.00000000	     -0.00000000	      0.00000000	      0.00000000	      0.00000000	      0.00000000	      0.00000000	      0.00000000	      0.00000000
      0.01000000	      0.00000000	     -0.00000000	      0.00000000	      0.00000000	      0.00000000	      0.00000000	      0.00000000	      0.00000000	      0.00000000	      8.66229916	     27.71955490	   -532.73596191	   -287.42287439	  -1042.36941913	      0.00000000	      0.00000000	      0.00000000	   1726.70945384	     -9.84690120	    -46.62931356	   -362.41937256	   -253.10340938	   -741.62592373	      0.00000000	      0.00000000	     -0.00000000	  -3680.18427003	      0.00000000	     -0.00000000	      0.00000000	      0.00000000	      0.00000000	      0.00000000	      0.00000000	      0.00000000	      0.00000000
      0.02000000	      0.00000000	     -0.00000000	      0.00000000	      0.00000000	      0.00000000	      0.00000000	      0.00000000	      0.00000000	      0.00000000	      9.24766254	     27.56718254	   -537.53991699	   -288.10497040	  -1042.65196898	      0.00000000	      0.00000000	      0.00000000	   1664.98134849	    -10.20174423	    -45.31785876	   -355.82043457	   -251.80284149	   -741.98413941	      0.00000000	      0.00000000	     -0.00000000	  -3522.17472737	      0.00000000	     -0.00000000	      0.00000000	      0.00000000	      0.00000000	      0.00000000	      0.00000000	      0.00000000	      0.00000000
      0.03000000	      0.00000000	     -0.00000000	      0.00000000	      0.00000000	      0.00000000	      0.00000000	      0.00000000	      0.00000000	      0.00000000	      8.97585011	     27.46479797	   -545.29315186	   -288.29682688	  -1044.14690629	      0.00000000	      0.00000000	     -0.00000000	   1460.05424634	    -10.62797077	    -44.47962477	   -347.47409058	   -251.22929737	   -743.30977797	      0.00000000	      0.00000000	     -0.00000000	  -3514.27102862	      0.00000000	     -0.00000000	      0.00000000	      0.00000000	      0.00000000	      0.00000000	      0.00000000	      0.00000000	      0.00000000
      0.04000000	      0.00000000	     -0.00000000	      0.00000000	      0.00000000	      0.00000000	      0.00000000	      0.00000000	      0.00000000	      0.00000000	      9.26159573	     28.08828926	   -549.25933838	   -288.57876635	  -1041.68715472	      0.00000000	      0.00000000	      0.00000000	   1596.76281643	    -10.64529791	    -42.57522490	   -340.70599365	   -250.74774016	   -742.08750142	      0.00000000	      0.00000000	     -0.00000000	  -3587.04947608	      0.00000000	     -0.00000000	      0.00000000	      0.00000000	      0.00000000	      0.00000000	      0.00000000	      0.00000000	      0.00000000
      0.05000000	      0.00000000	     -0.00000000	      0.00000000	      0.00000000	      0.00000000	      0.00000000	      0.00000000	      0.00000000	      0.00000000	      8.92105103	     27.66201210	   -557.67114258	   -288.85131080	  -1043.12354847	      0.00000000	      0.00000000	      0.00000000	   1342.04304747	    -10.90328959	    -41.34265423	   -333.70883179	   -250.27854835	   -742.98300723	      0.00000000	      0.00000000	     -0.00000000	  -3612.12729868	      0.00000000	     -0.00000000	      0.00000000	      0.00000000	      0.00000000	      0.00000000	      0.00000000	      0.00000000	      0.00000000
      0.06000000	      0.00000000	     -0.00000000	      0.00000000	      0.00000000	      0.00000000	      0.00000000	      0.00000000	      0.00000000	      0.00000000	      9.56084824	     27.81633949	   -561.11187744	   -289.27222333	  -1042.46507794	      0.00000000	      0.00000000	      0.00000000	   1409.21871730	    -11.16571301	    -40.17064188	   -325.82067871	   -248.82476260	   -744.98056251	      0.00000000	      0.00000000	     -0.00000000	  -3682.63936652	      0.00000000	     -0.00000000	      0.00000000	      0.00000000	      0.00000000	      0.00000000	      0.00000000	      0.00000000	      0.00000000
      0.07000000	      0.00000000	     -0.00000000	      0.00000000	      0.00000000	      0.00000000	      0.00000000	      0.00000000	      0.00000000	      0.00000000	      9.43022442	     27.47078323	   -567.85430908	   -289.52007373	  -1043.09867575	      0.00000000	      0.00000000	      0.00000000	   1517.11026567	    -11.70982704	    -39.21482747	   -320.96118164	   -248.69041719	   -744.02319685	      0.00000000	      0.00000000	     -0.00000000	  -3497.25332973	      0.00000000	     -0.00000000	      0.00000000	      0.00000000	      0.00000000	      0.00000000	      0.00000000	      0.00000000	      0.00000000
      0.08000000	      0.00000000	     -0.00000000	      0.00000000	      0.00000000	      0.00000000	      0.00000000	      0.00000000	      0.00000000	      0.00000000	      9.35634613	     27.18835449	   -571.19128418	   -289.49299998	  -1042.66710456	      0.00000000	      0.00000000	      0.00000000	   1097.18684753	    -11.62111616	    -38.16603750	   -320.44824219	   -248.20640752	   -741.37457445	      0.00000000	      0.00000000	     -0.00000000	  -3706.35599261	      0.00000000	     -0.00000000	      0.00000000	      0.00000000	      0.00000000	      0.00000000	      0.00000000	      0.00000000	      0.00000000
      0.09000000	      0.00000000	     -0.00000000	      0.00000000	      0.00000000	      0.00000000	      0.00000000	      0.00000000	      0.00000000	      0.00000000	      9.90929317	     26.93122292	   -577.49035645	   -289.62399222	  -1041.86350662	      0.00000000	      0.00000000	      0.00000000	   1218.53778695	    -11.63545271	    -37.71692937	   -315.60482788	   -246.15727127	   -742.46099836	      0.00000000	      0.00000000	     -0.00000000	  -3782.40598047	      0.00000000	     -0.00000000	      0.00000000	      0.00000000	      0.00000000	      0.00000000	      0.00000000	      0.00000000	      0.00000000
      0.10000000	      0.00000000	     -0.00000000	      0.00000000	      0.00000000	      0.00000000	      0.00000000	      0.00000000	      0.00000000	      0.00000000	     10.00160217	     26.72242737	   -585.89904785	   -290.54812972	  -1043.08573979	      0.00000000	      0.00000000	      0.00000000	   1029.97564289	    -12.22823850	    -37.26830185	   -311.76516724	   -244.66091015	   -743.20406387	      0.00000000	      0.00000000	     -0.00000000	  -3508.08159888	      0.00000000	     -0.00000000	      0.00000000	      0.00000000	      0.00000000	      0.00000000	      0.00000000	      0.00000000	      0.00000000
      0.11000000	      0.00000000	     -0.00000000	      0.00000000	      0.00000000	      0.00000000	      0.00000000	      0.00000000	      0.00000000	      0.00000000	     10.59338570	     26.40524292	   -589.54699707	   -290.92783890	  -1042.15714963	      0.00000000	      0.00000000	      0.00000000	    969.45278076	    -12.24209156	    -37.08507049	   -306.58157349	   -244.29321505	   -743.15510908	      0.00000000	     -0.00000000	     -0.00000000	  -3360.59760250	      0.00000000	     -0.00000000	      0.00000000	      0.00000000	      0.00000000	      0.00000000	      0.00000000	      0.00000000	      0.00000000
      0.12000000	      0.00000000	     -0.00000000	      0.00000000	      0.00000000	      0.00000000	      0.00000000	      0.00000000	      0.00000000	      0.00000000	     10.55176735	     27.25522423	   -595.78991699	   -291.71767966	  -1042.60658437	      0.00000000	      0.00000000	      0.00000000	    706.46430034	    -12.41303574	    -36.75149428	   -301.03240967	   -242.86574730	   -745.10677846	      0.00000000	      0.00000000	     -0.00000000	  -3474.24246662	      0.00000000	     -0.00000000	      0.00000000	      0.00000000	      0.00000000	      0.00000000	      0.00000000	      0.00000000	      0.00000000
      0.13000000	      0.00000000	     -0.00000000	      0.00000000	      0.00000000	      0.00000000	      0.00000000	      0.00000000	      0.00000000	      0.00000000	     11.77281284	     27.42541695	   -599.40521240	   -292.22990727	  -1042.40783868	      0.00000000	      0.00000000	      0.00000000	    576.45270584	    -12.22350350	    -37.16492737	   -296.01959229	   -241.86837536	   -743.57582769	      0.00000000	      0.00000000	     -0.00000000	  -3432.23110222	      0.00000000	     -0.00000000	      0.00000000	      0.00000000	      0.00000000	      0.00000000	      0.00000000	      0.00000000	      0.00000000
